<svg xmlns="http://www.w3.org/2000/svg" version="1.1" xmlns:xlink="http://www.w3.org/1999/xlink" xmlns:svgjs="http://svgjs.dev/svgjs" width="2000" height="1500" viewBox="0 0 2000 1500"><rect width="2000" height="1500" fill="#000000"></rect><g transform="matrix(0.34281796366129585,0,0,0.34281796366129585,656.8802004086493,248.38709677419354)"><svg viewBox="0 0 170 248" data-background-color="#000000" preserveAspectRatio="xMidYMid meet" height="2917" width="2000" xmlns="http://www.w3.org/2000/svg" xmlns:xlink="http://www.w3.org/1999/xlink"><g id="tight-bounds" transform="matrix(1,0,0,1,0.07483870967743655,0.4000000000000057)"><svg viewBox="0 0 169.85032258064513 247.2" height="247.2" width="169.85032258064513"><g><svg viewBox="0 0 169.85032258064516 247.20000000000002" height="247.2" width="169.85032258064513"><g><svg viewBox="0 0 169.85032258064516 247.20000000000002" height="247.20000000000002" width="169.85032258064516"><g id="textblocktransform"><svg viewBox="0 0 169.85032258064516 247.20000000000002" height="247.20000000000002" width="169.85032258064516" id="textblock"><g><svg viewBox="0 0 169.85032258064516 247.20000000000002" height="247.20000000000002" width="169.85032258064516"><g transform="matrix(1,0,0,1,0,0)"><svg width="169.85032258064516" viewBox="2.93 -29.79 20.8 30.28" height="247.20000000000002" data-palette-color="#6c0b7e"><path d="M23.73-7.67L23.73-7.67Q23.73-12.01 19.04-14.65L19.04-14.65Q18.12-15.14 13.33-17.24L13.33-17.24Q8.98-19.09 7.86-21.04L7.86-21.04Q7.28-22.12 7.28-23.34L7.28-23.34Q7.28-26.61 10.45-27.88L10.45-27.88Q11.82-28.42 13.48-28.42L13.48-28.42Q17.58-28.42 19.73-25.63L19.73-25.63Q21.14-23.73 21.09-21L21.09-21 22.56-21 22.56-29.54Q21.39-29.54 21.19-28.81L21.19-28.81Q21.09-28.47 21.09-27.88L21.09-27.88Q17.63-29.79 13.28-29.79L13.28-29.79Q8.01-29.79 5.08-26.86L5.08-26.86Q3.13-24.8 3.13-22.07L3.13-22.07Q3.13-17.97 7.71-15.38L7.71-15.38Q8.54-14.94 13.28-12.89L13.28-12.89Q17.68-10.94 18.85-8.94L18.85-8.94Q19.48-7.81 19.48-6.49L19.48-6.49Q19.48-3.08 16.16-1.56L16.16-1.56Q14.6-0.88 12.7-0.88L12.7-0.88Q5.22-0.98 4.39-10.01L4.39-10.01 2.93-10.01 2.93 0.1Q4.1 0.1 4.3-0.59L4.3-0.59Q4.39-0.98 4.39-2L4.39-2Q8.15 0.49 12.94 0.49L12.94 0.49Q18.55 0.49 21.63-2.54L21.63-2.54Q23.73-4.69 23.73-7.67Z" opacity="1" transform="matrix(1,0,0,1,0,0)" fill="#6c0b7e" class="wordmark-text-0" data-fill-palette-color="primary" id="text-0"></path></svg></g></svg></g></svg></g></svg></g><g></g></svg></g><defs></defs></svg><rect width="169.85032258064513" height="247.2" fill="none" stroke="none" visibility="hidden"></rect></g></svg></g></svg>